<svg xmlns="http://www.w3.org/2000/svg" width="92.748" height="35.069" viewBox="0 0 92.748 35.069"><defs><style>.a{fill:#6b76ff;}</style></defs><g transform="translate(-59.949 319.917)"><path class="a" d="M61.675-319.531a3.16,3.16,0,0,0-1.488,4.019,2.994,2.994,0,0,0,2.914,1.871,3.121,3.121,0,0,0,1.12-6.043A2.836,2.836,0,0,0,61.675-319.531Z" transform="translate(0)"/><path class="a" d="M197.086-319.625a3.126,3.126,0,0,0,1.2,6,2.967,2.967,0,0,0,3.144-3.3,2.787,2.787,0,0,0-1.672-2.592A2.893,2.893,0,0,0,197.086-319.625Z" transform="translate(-114.49 -0.014)"/><path class="a" d="M60.214-265.706c-.046.107-.061,6.028-.046,13.161l.046,12.961,2.715.046c2.638.031,2.715.031,2.9-.291.123-.245.153-2.316.123-7.593-.031-4-.046-7.271-.046-7.271.015,0,1.288,2.209,2.822,4.908l2.792,4.908h1.81v-.6c0-.521.046-.583.291-.521.476.123,1.15-.629,1.012-1.15a.939.939,0,0,0-.951-.8c-.307,0-.353-.077-.353-.614,0-.552-.046-.629-.537-.828a1.109,1.109,0,0,1,.046-2.071c.951-.429.859-.66-3.313-7.838l-3.789-6.519-2.73-.046C60.92-265.89,60.26-265.859,60.214-265.706Z" transform="translate(-0.181 -45.342)"/><path class="a" d="M147.716-265.356c-.215.368-1.933,3.344-3.835,6.626-2.976,5.169-3.436,6.043-3.436,6.6,0,.6-.046.66-.491.782a.859.859,0,0,0-.522,1.365.788.788,0,0,0,.629.4c.322,0,.368.077.414.644.031.552.107.675.383.706a1.464,1.464,0,0,1,.966,1.135c0,.353-.8,1.2-1.135,1.2-.169,0-.245.138-.245.46v.475l.951-.046.951-.046L145-249.741c1.473-2.577,2.715-4.755,2.776-4.862.061-.092.077,3.083.046,7.071-.031,5.246,0,7.347.123,7.593.169.307.276.322,2.853.322,2.485,0,2.684-.015,2.838-.291.107-.2.153-4.51.153-12.9s-.046-12.7-.153-12.9c-.153-.276-.353-.291-2.853-.291h-2.669Z" transform="translate(-67.144 -45.231)"/><path class="a" d="M467-199.487v8.528l1.58-.046,1.565-.046-.015-5.583a48.019,48.019,0,0,1,.107-5.369c.077.123,1.058,1.825,2.163,3.773l2.04,3.574h1.994l2.132-3.758c1.166-2.071,2.132-3.758,2.147-3.758s.031,2.5.031,5.553l-.015,5.568,1.58.046,1.565.046V-208h-3.19l-2.577,4.448c-1.411,2.439-2.623,4.448-2.684,4.448s-1.273-2.009-2.684-4.448L470.175-208H467Z" transform="translate(-344.551 -94.335)"/><path class="a" d="M405.654-196.576l-.491.061-.046,1.718-.046,1.718-1.028.046-1.043.046v2.577l1.043.046,1.028.046.077,3.3c.077,3.006.107,3.359.414,3.911.828,1.565,2.654,2.239,4.8,1.779,1.258-.276,1.273-.291.767-1.749-.337-1.012-.475-1.258-.706-1.227-1.38.138-1.565.092-1.9-.46-.276-.445-.307-.721-.276-3.022l.046-2.531,1.427-.046,1.411-.046v-2.577l-1.411-.046-1.427-.046-.077-1.764-.077-1.764-1-.015A13.3,13.3,0,0,0,405.654-196.576Z" transform="translate(-290.392 -103.964)"/><path class="a" d="M250.117-175.776A7.22,7.22,0,0,0,247.1-174a7.957,7.957,0,0,0-1.1,1.7,4.4,4.4,0,0,0-.491,2.638,4.367,4.367,0,0,0,.475,2.608,5.434,5.434,0,0,0,2.792,2.868,4.384,4.384,0,0,0,2.853.583,5.4,5.4,0,0,0,3.819-1.1,6.571,6.571,0,0,0,1.641-1.948,8,8,0,0,0-1.242-.721l-1.258-.614-.46.568a3.227,3.227,0,0,1-4.678.245c-.675-.675-1.043-1.641-.69-1.779.123-.046,2.086-.092,4.356-.092h4.126l.092-.368a8.222,8.222,0,0,0-.614-3.375A5.785,5.785,0,0,0,250.117-175.776Zm2.393,2.592c.629.184,1.657,1.212,1.657,1.687,0,.291-.107.307-2.684.307-2.96,0-2.945,0-2.316-.936A2.994,2.994,0,0,1,252.51-173.184Z" transform="translate(-157.067 -121.481)"/><path class="a" d="M334.246-175.549a4.534,4.534,0,0,0-1.473.936c-.353.353-.69.583-.752.537a1.606,1.606,0,0,1-.107-.706v-.583H329l.031,5.783.046,5.8h3.068l.077-3.528a33.29,33.29,0,0,1,.215-3.835,2.584,2.584,0,0,1,3.7-1.365c.736.476.844,1.135.844,5.123v3.681h3.068v-4.187c0-4.632-.092-5.215-.92-6.366A4.492,4.492,0,0,0,334.246-175.549Z" transform="translate(-227.75 -121.601)"/><path class="a" d="M591.871-175.637a6.293,6.293,0,0,0-1.457.6,7.526,7.526,0,0,0-2.5,2.807,4.741,4.741,0,0,0-.414,2.638,4.741,4.741,0,0,0,.414,2.638,6.6,6.6,0,0,0,2.531,2.761,7.106,7.106,0,0,0,5.752.23,6.892,6.892,0,0,0,2.608-2.209l.261-.445-1.289-.644-1.288-.644-.4.537a3.217,3.217,0,0,1-3.911.8,2.926,2.926,0,0,1-1.58-1.887l-.031-.445,4.356-.046,4.341-.031-.061-1.273a5.893,5.893,0,0,0-1.457-3.789,5.087,5.087,0,0,0-3.037-1.672A5.526,5.526,0,0,0,591.871-175.637Zm2.914,2.7c.66.337,1.38,1.166,1.38,1.6,0,.169-.521.215-2.654.215a23.373,23.373,0,0,1-2.761-.092c-.138-.138.261-.844.69-1.242A2.961,2.961,0,0,1,594.786-172.937Z" transform="translate(-446.568 -121.544)"/></g></svg>