<svg xmlns="http://www.w3.org/2000/svg" width="108.723" height="41.109" viewBox="0 0 108.723 41.109"><defs><style>.a{fill:#6b76ff;}</style></defs><g transform="translate(-59.949 319.918)"><path class="a" d="M61.972-319.465a3.7,3.7,0,0,0-1.744,4.711,3.509,3.509,0,0,0,3.416,2.194,3.659,3.659,0,0,0,1.313-7.084A3.324,3.324,0,0,0,61.972-319.465Z" transform="translate(0)"/><path class="a" d="M197.411-319.577a3.665,3.665,0,0,0,1.4,7.031,3.478,3.478,0,0,0,3.686-3.866,3.267,3.267,0,0,0-1.96-3.039A3.391,3.391,0,0,0,197.411-319.577Z" transform="translate(-110.914 -0.014)"/><path class="a" d="M60.223-265.677c-.054.126-.072,7.066-.054,15.428l.054,15.194,3.183.054c3.093.036,3.183.036,3.4-.342.144-.288.18-2.715.144-8.9-.036-4.693-.054-8.523-.054-8.523.018,0,1.51,2.589,3.308,5.754l3.272,5.754H75.6v-.7c0-.611.054-.683.342-.611.557.144,1.349-.737,1.187-1.349a1.1,1.1,0,0,0-1.115-.935c-.36,0-.414-.09-.414-.719,0-.647-.054-.737-.629-.971a1.3,1.3,0,0,1,.054-2.427c1.115-.5,1.007-.773-3.884-9.188L66.7-265.8l-3.2-.054C61.05-265.893,60.277-265.857,60.223-265.677Z" transform="translate(-0.175 -43.842)"/><path class="a" d="M149.173-265.245c-.252.432-2.266,3.92-4.5,7.768-3.488,6.06-4.028,7.084-4.028,7.732,0,.7-.054.773-.575.917a1.007,1.007,0,0,0-.611,1.6.924.924,0,0,0,.737.468c.378,0,.432.09.485.755.036.647.126.791.45.827a1.716,1.716,0,0,1,1.133,1.331c0,.414-.935,1.4-1.331,1.4-.2,0-.288.162-.288.539v.557l1.115-.054,1.115-.054,3.111-5.484c1.726-3.021,3.183-5.574,3.255-5.7.072-.108.09,3.614.054,8.289-.036,6.149,0,8.613.144,8.9.2.36.324.378,3.344.378,2.913,0,3.147-.018,3.326-.342.126-.234.18-5.286.18-15.122s-.054-14.888-.18-15.122c-.18-.324-.414-.342-3.344-.342H149.64Z" transform="translate(-65.049 -43.735)"/><path class="a" d="M467-198.021v10l1.852-.054,1.834-.054-.018-6.545a56.3,56.3,0,0,1,.126-6.293c.09.144,1.241,2.14,2.535,4.423l2.391,4.19h2.337l2.5-4.405c1.367-2.427,2.5-4.405,2.517-4.405s.036,2.931.036,6.509l-.018,6.527,1.852.054,1.834.054V-208h-3.74l-3.021,5.214c-1.654,2.859-3.075,5.214-3.147,5.214s-1.492-2.355-3.147-5.214l-3-5.214H467Z" transform="translate(-333.786 -91.306)"/><path class="a" d="M406.111-196.568l-.575.072-.054,2.014-.054,2.014-1.2.054L403-192.36v3.021l1.223.054,1.2.054.09,3.866c.09,3.524.126,3.938.485,4.585.971,1.834,3.111,2.625,5.628,2.086,1.474-.324,1.492-.342.9-2.05-.4-1.187-.557-1.474-.827-1.438-1.618.162-1.834.108-2.23-.539-.324-.521-.36-.845-.324-3.542l.054-2.967,1.672-.054,1.654-.054v-3.021l-1.654-.054-1.672-.054-.09-2.068-.09-2.068-1.169-.018A15.59,15.59,0,0,0,406.111-196.568Z" transform="translate(-281.321 -100.635)"/><path class="a" d="M250.912-175.749a8.464,8.464,0,0,0-3.542,2.086,9.327,9.327,0,0,0-1.295,2,5.157,5.157,0,0,0-.575,3.093,5.119,5.119,0,0,0,.557,3.057,6.37,6.37,0,0,0,3.273,3.362,5.139,5.139,0,0,0,3.344.683,6.326,6.326,0,0,0,4.477-1.295,7.7,7.7,0,0,0,1.924-2.284,9.38,9.38,0,0,0-1.456-.845l-1.474-.719-.539.665a3.783,3.783,0,0,1-5.484.288c-.791-.791-1.223-1.924-.809-2.086.144-.054,2.445-.108,5.107-.108h4.837l.108-.432a9.638,9.638,0,0,0-.719-3.956A6.781,6.781,0,0,0,250.912-175.749Zm2.805,3.039c.737.216,1.942,1.42,1.942,1.978,0,.342-.126.36-3.147.36-3.47,0-3.452,0-2.715-1.1A3.51,3.51,0,0,1,253.717-172.71Z" transform="translate(-152.161 -117.605)"/><path class="a" d="M335.149-175.507a5.315,5.315,0,0,0-1.726,1.1c-.414.414-.809.683-.881.629a1.882,1.882,0,0,1-.126-.827v-.683H329l.036,6.779.054,6.8h3.6l.09-4.136a39.024,39.024,0,0,1,.252-4.5,3.029,3.029,0,0,1,4.333-1.6c.863.557.989,1.331.989,6.006v4.315h3.6v-4.909c0-5.43-.108-6.113-1.079-7.462A5.266,5.266,0,0,0,335.149-175.507Z" transform="translate(-220.636 -117.722)"/><path class="a" d="M592.624-175.6a7.378,7.378,0,0,0-1.708.7,8.822,8.822,0,0,0-2.931,3.29c-.432.917-.485,1.223-.485,3.093s.054,2.176.485,3.093a7.74,7.74,0,0,0,2.967,3.237,8.33,8.33,0,0,0,6.743.27,8.079,8.079,0,0,0,3.057-2.589l.306-.521-1.51-.755-1.51-.755-.467.629a3.771,3.771,0,0,1-4.585.935,3.43,3.43,0,0,1-1.852-2.212l-.036-.521,5.107-.054,5.089-.036-.072-1.492a6.908,6.908,0,0,0-1.708-4.441,5.963,5.963,0,0,0-3.56-1.96A6.478,6.478,0,0,0,592.624-175.6Zm3.416,3.165c.773.4,1.618,1.367,1.618,1.87,0,.2-.611.252-3.111.252a27.4,27.4,0,0,1-3.237-.108c-.162-.162.306-.989.809-1.456A3.471,3.471,0,0,1,596.041-172.433Z" transform="translate(-432.619 -117.667)"/></g></svg>